HIERARCHY
ROOT joint_Root
{
	OFFSET 0.0 0.0 0.0
	CHANNELS 6 Xposition Yposition Zposition Zrotation Xrotation Yrotation 
	JOINT Hips
	{
		OFFSET 4.5925 91.4895 -427.239
		CHANNELS 6 Xposition Yposition Zposition Zrotation Xrotation Yrotation 
		JOINT Spine
		{
			OFFSET 15.7357 0.0 0.0
			CHANNELS 6 Xposition Yposition Zposition Zrotation Xrotation Yrotation 
			JOINT Chest
			{
				OFFSET 8.98455 -0.406207 0.0
				CHANNELS 6 Xposition Yposition Zposition Zrotation Xrotation Yrotation 
				JOINT Neck
				{
					OFFSET 16.3773 0.0 0.0
					CHANNELS 6 Xposition Yposition Zposition Zrotation Xrotation Yrotation 
					JOINT Head
					{
						OFFSET 6.45672 0.0 0.0
						CHANNELS 6 Xposition Yposition Zposition Zrotation Xrotation Yrotation 
						End Site
						{
							OFFSET 0.0 0.0 0.0
						}
					}
				}
				JOINT Shoulder_L
				{
					OFFSET 12.9942 -0.242716 4.98039
					CHANNELS 6 Xposition Yposition Zposition Zrotation Xrotation Yrotation 
					JOINT UpperArm_L
					{
						OFFSET 5.34809 0.0 0.0
						CHANNELS 6 Xposition Yposition Zposition Zrotation Xrotation Yrotation 
						JOINT LowerArm_L
						{
							OFFSET 24.3286 1.87007e-05 0.0
							CHANNELS 6 Xposition Yposition Zposition Zrotation Xrotation Yrotation 
							JOINT Hand_L
							{
								OFFSET 22.2916 0.0 0.0
								CHANNELS 6 Xposition Yposition Zposition Zrotation Xrotation Yrotation 
								End Site
								{
									OFFSET 0.0 0.0 0.0
								}
							}
						}
					}
				}
				JOINT Shoulder_R
				{
					OFFSET 12.9945 -0.242716 -4.98039
					CHANNELS 6 Xposition Yposition Zposition Zrotation Xrotation Yrotation 
					JOINT UpperArm_R
					{
						OFFSET -5.34813 0.0 0.0
						CHANNELS 6 Xposition Yposition Zposition Zrotation Xrotation Yrotation 
						JOINT LowerArm_R
						{
							OFFSET -24.3289 0.000322201 0.0
							CHANNELS 6 Xposition Yposition Zposition Zrotation Xrotation Yrotation 
							JOINT Hand_R
							{
								OFFSET -22.2915 -0.000108084 0.0
								CHANNELS 6 Xposition Yposition Zposition Zrotation Xrotation Yrotation 
								End Site
								{
									OFFSET 0.0 0.0 0.0
								}
							}
						}
					}
				}
			}
		}
		JOINT UpperLeg_L
		{
			OFFSET -2.19248 -6.46944 0.0
			CHANNELS 6 Xposition Yposition Zposition Zrotation Xrotation Yrotation 
			JOINT LowerLeg_L
			{
				OFFSET 39.0811 0.0 -1.23785e-05
				CHANNELS 6 Xposition Yposition Zposition Zrotation Xrotation Yrotation 
				JOINT Foot_L
				{
					OFFSET 40.9854 0.0 -1.26872e-05
					CHANNELS 6 Xposition Yposition Zposition Zrotation Xrotation Yrotation 
					JOINT Toes_L
					{
						OFFSET 11.7543 0.0 0.0
						CHANNELS 6 Xposition Yposition Zposition Zrotation Xrotation Yrotation 
						End Site
						{
							OFFSET 0.0 0.0 0.0
						}
					}
				}
			}
		}
		JOINT UpperLeg_R
		{
			OFFSET -2.19251 6.46944 0.0
			CHANNELS 6 Xposition Yposition Zposition Zrotation Xrotation Yrotation 
			JOINT LowerLeg_R
			{
				OFFSET -39.0811 -0.00228153 -0.0401928
				CHANNELS 6 Xposition Yposition Zposition Zrotation Xrotation Yrotation 
				JOINT Foot_R
				{
					OFFSET -40.9854 0.0 0.0
					CHANNELS 6 Xposition Yposition Zposition Zrotation Xrotation Yrotation 
					JOINT Toes_R
					{
						OFFSET -11.7543 0.0 0.0
						CHANNELS 6 Xposition Yposition Zposition Zrotation Xrotation Yrotation 
						End Site
						{
							OFFSET 0.0 0.0 0.0
						}
					}
				}
			}
		}
	}
}
MOTION
Frames:	4
Frame Time:	0.0333333
0.000000 0.000000 0.000000 0.000000 0.000000 -0.000000 112.412000 91.392300 175.895000 -86.207700 51.308500 179.891000 15.735700 0.000005 -0.000001 108.067000 83.786500 -106.318000 8.984550 -0.406207 -0.000000 4.000060 3.790890 3.362400 16.377300 -0.000001 -0.000001 -3.178750 2.470380 3.464300 6.456720 -0.000001 -0.000000 -9.057860 1.694350 11.745500 12.994200 -0.242716 4.980390 -91.263500 4.068380 -72.730800 5.348090 -0.000007 -0.000001 -67.479400 16.882400 1.935750 24.328600 0.000019 0.000005 9.203100 25.330300 -20.741500 22.291600 -0.000001 0.000005 13.373800 5.216500 2.303140 12.994500 -0.242716 -4.980390 88.844600 10.652900 -83.773500 -5.348130 -0.000001 -0.000004 -44.048700 11.607800 -23.026600 -24.328900 0.000322 -0.000009 1.460910 2.827610 -27.357300 -22.291500 -0.000108 -0.000004 19.647900 5.413120 -3.367930 -2.192480 -6.469440 -0.000000 176.604000 -18.833900 -20.533200 39.081100 -0.000007 -0.000012 0.160342 -0.357341 24.166400 40.985400 -0.000006 -0.000013 6.817710 -3.192780 -60.187700 11.754300 -0.000000 0.000003 -0.004199 -0.053505 -18.753300 -2.192510 6.469440 -0.000001 173.799000 38.237900 -177.891000 -39.081100 -0.002282 -0.040193 -0.133323 0.325100 22.797100 -40.985400 0.000008 0.000006 3.146470 22.097600 -69.488700 -11.754300 -0.000006 -0.000006 -0.000869 -0.013527 -17.123300
0.000000 0.000000 0.000000 0.000000 0.000000 -0.000000 113.813000 91.218500 174.942000 -86.224400 50.963700 179.354000 15.735700 0.000005 -0.000001 111.024000 83.859600 -109.449000 8.984550 -0.406207 -0.000000 3.648420 4.343550 3.009220 16.377300 -0.000001 -0.000001 -3.138090 2.931510 3.508720 6.456720 -0.000001 -0.000000 -8.666660 2.018630 12.008200 12.994200 -0.242716 4.980390 -91.256100 3.981710 -72.475300 5.348090 -0.000007 -0.000001 -67.198800 13.977700 1.890900 24.328600 0.000019 0.000005 8.632690 26.845600 -18.582800 22.291600 -0.000001 0.000005 13.442500 5.157720 3.755810 12.994500 -0.242716 -4.980390 88.935100 10.506500 -84.179300 -5.348130 -0.000001 -0.000004 -43.350900 10.156600 -23.915300 -24.328900 0.000322 -0.000009 1.321170 2.441280 -28.453100 -22.291500 -0.000108 -0.000004 20.083200 5.416830 -3.492560 -2.192480 -6.469440 -0.000000 174.211000 -21.304600 -22.001600 39.081100 -0.000007 -0.000012 0.139140 -0.422766 18.217600 40.985400 -0.000006 -0.000013 8.889680 -1.622430 -59.240800 11.754300 -0.000000 0.000003 -0.004130 -0.052790 -18.724200 -2.192510 6.469440 -0.000001 173.203000 38.671700 -176.548000 -39.081100 -0.002282 -0.040193 -0.127462 0.321256 22.150800 -40.985400 0.000008 0.000006 2.794300 22.487900 -70.311100 -11.754300 -0.000006 -0.000006 -0.001264 -0.019084 -17.349200
0.000000 0.000000 0.000000 0.000000 0.000000 -0.000000 115.424000 90.968500 173.781000 -85.588700 50.623500 178.521000 15.735700 0.000005 -0.000001 112.792000 83.925700 -111.280000 8.984550 -0.406207 -0.000000 3.383940 4.642860 2.884880 16.377300 -0.000001 -0.000001 -3.061500 3.245000 3.585590 6.456720 -0.000001 -0.000000 -8.291040 2.401710 12.196900 12.994200 -0.242716 4.980390 -91.239900 3.922100 -72.441400 5.348090 -0.000007 -0.000001 -67.309200 11.887300 1.774660 24.328600 0.000019 0.000005 7.837380 28.840300 -15.927100 22.291600 -0.000001 0.000005 14.339300 5.104570 5.005650 12.994500 -0.242716 -4.980390 88.995000 10.300300 -84.396600 -5.348130 -0.000001 -0.000004 -43.366800 9.428480 -25.127300 -24.328900 0.000322 -0.000009 1.360090 2.524240 -28.348100 -22.291500 -0.000108 -0.000004 20.225800 5.419960 -3.597690 -2.192480 -6.469440 -0.000000 173.028000 -22.307500 -22.569800 39.081100 -0.000007 -0.000012 0.086534 -0.335794 14.450900 40.985400 -0.000006 -0.000013 10.238800 -2.460220 -58.575400 11.754300 -0.000000 0.000003 -0.003869 -0.050081 -18.613900 -2.192510 6.469440 -0.000001 173.190000 38.683500 -175.059000 -39.081100 -0.002282 -0.040193 -0.022759 0.064935 21.879900 -40.985400 0.000008 0.000006 4.985580 21.834800 -72.409500 -11.754300 -0.000006 -0.000006 -0.002162 -0.030729 -17.822600
0.000000 0.000000 0.000000 0.000000 0.000000 -0.000000 117.196000 90.665500 172.294000 -85.338900 50.269400 178.199000 15.735700 0.000005 -0.000001 113.254000 84.013000 -111.940000 8.984550 -0.406207 -0.000000 3.192230 4.669860 2.496830 16.377300 -0.000001 -0.000001 -2.860500 3.395400 3.637910 6.456720 -0.000001 -0.000000 -8.055810 2.728380 12.452900 12.994200 -0.242716 4.980390 -91.211700 3.852250 -72.524800 5.348090 -0.000007 -0.000001 -67.714900 11.384400 1.679940 24.328600 0.000019 0.000005 6.709310 29.885000 -13.284200 22.291600 -0.000001 0.000005 14.922600 5.051950 6.193710 12.994500 -0.242716 -4.980390 89.013100 10.208100 -84.448300 -5.348130 -0.000001 -0.000004 -44.070400 9.439080 -26.145200 -24.328900 0.000322 -0.000009 1.493350 2.844300 -27.733700 -22.291500 -0.000108 -0.000004 20.257700 5.414260 -3.407080 -2.192480 -6.469440 -0.000000 172.383000 -22.994100 -23.661000 39.081100 -0.000007 -0.000012 0.089666 -0.339154 14.809200 40.985400 -0.000006 -0.000013 11.241500 -3.952370 -56.506300 11.754300 -0.000000 0.000003 -0.004132 -0.052817 -18.725300 -2.192510 6.469440 -0.000001 172.198000 38.192000 -173.937000 -39.081100 -0.002282 -0.040193 -0.024221 0.064794 23.025300 -40.985400 0.000008 0.000006 4.083560 21.885600 -72.054700 -11.754300 -0.000006 -0.000006 -0.063642 -0.118066 -18.642100
